<svg width="65" height="12" viewBox="0 0 65 12" fill="none" xmlns="http://www.w3.org/2000/svg">
<path d="M2.388 11V2.792H0.072V1.484H6.204V2.792H3.9V11H2.388ZM9.05269 11.084C8.32469 11.084 7.79669 10.944 7.46869 10.664C7.14869 10.384 6.98869 9.912 6.98869 9.248V5.3C6.98869 4.636 7.12869 4.18 7.40869 3.932C7.68869 3.676 8.16869 3.548 8.84869 3.548H10.3247C11.0127 3.548 11.5007 3.676 11.7887 3.932C12.0847 4.18 12.2327 4.636 12.2327 5.3V8.168H8.45269V9.704C8.45269 9.808 8.50469 9.86 8.60869 9.86H12.0407V11.084H9.05269ZM8.60869 4.724C8.50469 4.724 8.45269 4.78 8.45269 4.892V7.112H10.7807V4.892C10.7807 4.78 10.7287 4.724 10.6247 4.724H8.60869ZM15.5443 11.108C14.8163 11.108 14.2923 10.972 13.9723 10.7C13.6523 10.42 13.4923 9.948 13.4923 9.284V5.372C13.4923 4.708 13.6523 4.24 13.9723 3.968C14.2923 3.688 14.8163 3.548 15.5443 3.548H17.8003V4.76H15.1243C15.0123 4.76 14.9563 4.816 14.9563 4.928V9.728C14.9563 9.84 15.0123 9.896 15.1243 9.896H17.8003V11.108H15.5443ZM22.3909 3.548C22.9989 3.548 23.4429 3.668 23.7229 3.908C24.0029 4.148 24.1429 4.572 24.1429 5.18V11H22.6789V4.892C22.6789 4.78 22.6269 4.724 22.5229 4.724H20.4229C20.3189 4.724 20.2669 4.78 20.2669 4.892L20.2789 11H18.8269L18.8149 0.895999H20.2669V4.232C20.4589 3.776 20.8869 3.548 21.5509 3.548H22.3909ZM31.36 7.472L33.148 11H31.528L29.596 7.004C29.548 6.908 29.484 6.86 29.404 6.86H28.576C28.488 6.86 28.424 6.908 28.384 7.004L26.452 11H24.928L26.68 7.46C26.848 7.116 26.988 6.844 27.1 6.644C27.22 6.436 27.38 6.284 27.58 6.188C27.372 6.092 27.204 5.944 27.076 5.744C26.948 5.544 26.812 5.272 26.668 4.928L25.096 1.484H26.704L28.456 5.384C28.48 5.44 28.504 5.48 28.528 5.504C28.552 5.528 28.592 5.54 28.648 5.54H29.476C29.564 5.54 29.628 5.488 29.668 5.384L31.456 1.484H32.98L31.348 4.94C31.18 5.292 31.036 5.568 30.916 5.768C30.796 5.968 30.636 6.116 30.436 6.212C30.636 6.308 30.796 6.46 30.916 6.668C31.044 6.868 31.192 7.136 31.36 7.472ZM37.6024 4.796H35.8864V9.62C35.8864 9.724 35.9384 9.776 36.0424 9.776H37.6024V11H36.4864C35.7664 11 35.2424 10.86 34.9144 10.58C34.5944 10.3 34.4344 9.832 34.4344 9.176V4.796H33.5704V3.656H34.4344V1.784H35.8864V3.656H37.6024V4.796ZM41.9238 3.548V4.724H40.1118C39.9998 4.724 39.9438 4.78 39.9438 4.892L39.9558 11H38.5158L38.4918 3.656H39.7878L39.8958 4.4C40.0558 3.832 40.4998 3.548 41.2278 3.548H41.9238ZM44.6543 11.084C43.9263 11.084 43.3983 10.944 43.0703 10.664C42.7503 10.384 42.5903 9.912 42.5903 9.248V5.3C42.5903 4.636 42.7303 4.18 43.0103 3.932C43.2903 3.676 43.7703 3.548 44.4503 3.548H45.9263C46.6143 3.548 47.1023 3.676 47.3903 3.932C47.6863 4.18 47.8343 4.636 47.8343 5.3V8.168H44.0543V9.704C44.0543 9.808 44.1063 9.86 44.2103 9.86H47.6423V11.084H44.6543ZM44.2103 4.724C44.1063 4.724 44.0543 4.78 44.0543 4.892V7.112H46.3823V4.892C46.3823 4.78 46.3303 4.724 46.2263 4.724H44.2103ZM52.5619 3.548C53.0339 3.548 53.4059 3.62 53.6779 3.764C53.9499 3.908 54.1339 4.152 54.2299 4.496C54.3739 3.864 54.8299 3.548 55.5979 3.548H56.2699C56.8779 3.548 57.3179 3.668 57.5899 3.908C57.8699 4.148 58.0099 4.572 58.0099 5.18V11H56.5579V4.892C56.5579 4.78 56.5059 4.724 56.4019 4.724H54.4699C54.3659 4.724 54.3139 4.78 54.3139 4.892L54.3019 4.94C54.3099 5.02 54.3139 5.1 54.3139 5.18V11H52.8499V4.892C52.8499 4.78 52.7979 4.724 52.6939 4.724H50.7379C50.6339 4.724 50.5819 4.78 50.5819 4.892L50.6059 11H49.1419L49.1299 3.656H50.4259L50.5339 4.4C50.6939 3.832 51.1379 3.548 51.8659 3.548H52.5619ZM61.3769 11.084C60.6489 11.084 60.1209 10.944 59.7929 10.664C59.4729 10.384 59.3129 9.912 59.3129 9.248V5.3C59.3129 4.636 59.4529 4.18 59.7329 3.932C60.0129 3.676 60.4929 3.548 61.1729 3.548H62.6489C63.3369 3.548 63.8249 3.676 64.1129 3.932C64.4089 4.18 64.5569 4.636 64.5569 5.3V8.168H60.7769V9.704C60.7769 9.808 60.8289 9.86 60.9329 9.86H64.3649V11.084H61.3769ZM60.9329 4.724C60.8289 4.724 60.7769 4.78 60.7769 4.892V7.112H63.1049V4.892C63.1049 4.78 63.0529 4.724 62.9489 4.724H60.9329Z" fill="url(#paint0_linear_1_2)"/>
<defs>
<linearGradient id="paint0_linear_1_2" x1="33" y1="2.5" x2="33" y2="11" gradientUnits="userSpaceOnUse">
<stop stop-color="#7B50FC"/>
<stop offset="1" stop-color="white"/>
</linearGradient>
</defs>
</svg>
